<svg version="1.0" xmlns="http://www.w3.org/2000/svg"
 width="500.000000pt" height="500.000000pt" viewBox="0 0 500.000000 500.000000"
 preserveAspectRatio="xMidYMid meet">

<g transform="translate(0.000000,500.000000) scale(0.100000,-0.100000)"
fill="#8a2be2" stroke="none">
<path d="M0 2500 l0 -2500 2500 0 2500 0 0 2500 0 2500 -2500 0 -2500 0 0
-2500z m1174 1139 c59 -21 126 -71 126 -93 0 -11 -111 -96 -125 -96 -3 0 -24
14 -47 30 -35 26 -50 30 -105 30 -50 0 -67 -4 -83 -20 -11 -11 -20 -24 -20
-28 0 -22 44 -43 155 -72 136 -36 159 -47 196 -87 43 -45 59 -87 59 -150 -1
-157 -110 -238 -320 -238 -137 0 -221 27 -289 92 l-46 45 40 34 c22 18 55 41
72 51 l33 17 32 -31 c47 -44 73 -55 137 -56 91 -2 144 30 121 73 -11 20 -33
29 -159 60 -134 34 -192 73 -225 152 -42 99 7 222 109 276 87 46 234 51 339
11z m1429 -2 c145 -66 223 -234 197 -420 -29 -201 -176 -318 -381 -304 -140 9
-234 72 -293 196 -29 62 -31 73 -31 176 1 89 5 121 23 166 40 100 124 176 231
206 70 20 188 10 254 -20z m752 7 c71 -25 148 -104 169 -174 9 -30 13 -57 9
-61 -5 -3 -52 -9 -105 -12 l-98 -5 -9 35 c-15 55 -47 83 -93 83 -53 0 -74 -13
-100 -63 -19 -35 -22 -59 -22 -147 -1 -116 11 -165 49 -200 48 -45 158 -22
193 41 35 64 33 62 98 49 89 -17 94 -20 94 -43 0 -61 -85 -163 -170 -205 -48
-24 -67 -27 -150 -27 -82 0 -103 4 -152 27 -108 51 -179 153 -198 288 -12 82
0 180 29 246 22 49 80 116 125 144 83 51 224 61 331 24z m-1327 -66 l3 -77
-103 -3 -103 -3 -3 -287 -2 -288 -110 0 -110 0 -2 288 -3 287 -102 3 -103 3 0
73 c0 40 3 76 7 79 4 4 146 6 317 5 l311 -3 3 -77z m1817 60 c3 -13 6 -77 8
-142 l2 -120 100 140 100 139 98 3 c78 2 98 0 103 -12 3 -9 -27 -54 -80 -118
-47 -57 -86 -108 -86 -114 0 -6 50 -114 110 -239 61 -125 110 -233 110 -241 0
-19 -222 -21 -238 -1 -6 7 -36 71 -67 142 -31 72 -60 134 -64 138 -5 5 -27
-14 -50 -41 l-41 -50 0 -90 c0 -64 -4 -93 -14 -101 -9 -8 -48 -11 -112 -9
l-99 3 -3 355 c-1 195 0 361 3 367 3 9 34 13 109 13 101 0 106 -1 111 -22z
m-1941 -981 c165 -61 283 -190 343 -376 23 -71 28 -280 9 -371 -45 -217 -197
-381 -402 -435 -78 -21 -250 -21 -329 0 -204 53 -346 200 -402 415 -23 90 -22
272 2 365 50 197 183 347 358 404 89 29 99 30 232 26 99 -2 132 -7 189 -28z
m826 13 c12 -7 16 -45 20 -201 l5 -192 128 180 c70 99 137 189 148 199 18 16
41 19 171 22 124 3 153 1 174 -13 47 -30 34 -57 -111 -234 -74 -90 -135 -165
-135 -166 0 -1 79 -164 175 -361 96 -197 175 -369 175 -381 0 -48 -18 -53
-210 -53 -171 0 -180 1 -204 23 -16 13 -59 97 -111 217 -47 107 -89 198 -93
202 -4 4 -31 -22 -60 -59 l-52 -66 0 -139 c0 -187 10 -178 -203 -178 -154 0
-165 1 -183 21 -18 20 -19 47 -22 580 l-2 559 24 25 c25 25 28 25 188 25 90 0
170 -5 178 -10z m1151 -9 l24 -19 -38 -343 c-21 -189 -43 -357 -49 -372 -14
-36 -43 -47 -123 -47 -76 0 -111 14 -119 46 -4 14 -24 175 -46 359 -41 349
-41 378 -1 388 9 3 86 5 172 6 140 1 159 -1 180 -18z m-11 -841 c12 -8 15 -37
15 -161 0 -198 9 -189 -195 -189 -193 0 -185 -8 -185 185 0 106 4 146 14 158
11 15 37 17 175 17 88 0 168 -5 176 -10z"/>
<path d="M2377 3485 c-33 -33 -47 -94 -47 -202 0 -157 31 -213 117 -213 55 1
73 11 98 60 15 28 19 58 19 150 1 128 -12 179 -51 210 -38 30 -103 27 -136 -5z"/>
<path d="M1540 2614 c-181 -48 -312 -183 -356 -370 -20 -83 -22 -246 -5 -329
26 -122 92 -229 183 -298 92 -69 189 -98 328 -98 247 1 415 116 492 339 20 58
23 87 23 207 0 157 -10 205 -62 307 -62 120 -174 208 -308 243 -74 19 -222 19
-295 -1z m227 -175 c45 -17 81 -58 104 -118 38 -103 43 -353 10 -479 -13 -47
-60 -106 -102 -128 -41 -21 -142 -18 -189 6 -86 44 -115 132 -115 350 1 120 5
169 19 216 20 70 65 130 110 150 38 16 124 18 163 3z"/>
<path d="M1620 2377 c-37 -19 -67 -83 -79 -170 -29 -209 4 -403 74 -435 14 -7
51 -12 81 -12 50 0 60 4 89 33 43 43 56 106 56 279 0 239 -39 318 -153 318
-24 0 -54 -6 -68 -13z"/>
<path d="M2400 2075 l0 -545 145 0 145 0 0 124 c0 69 4 136 10 151 15 39 130
184 153 191 12 4 26 -1 37 -12 10 -11 61 -116 112 -234 l95 -215 161 -3 161
-2 -63 132 c-35 73 -114 237 -176 365 -81 167 -110 237 -105 253 4 11 64 91
135 178 l128 157 -116 3 c-65 1 -126 1 -137 -2 -12 -3 -82 -93 -173 -221 -127
-177 -158 -215 -178 -215 -13 0 -28 9 -34 19 -6 12 -10 101 -10 220 l0 201
-145 0 -145 0 0 -545z"/>
<path d="M3554 2588 c6 -31 76 -629 76 -642 0 -12 131 -6 135 7 4 10 75 635
75 658 0 5 -65 9 -145 9 l-146 0 5 -32z"/>
<path d="M3560 1650 l0 -120 135 0 135 0 0 120 0 120 -135 0 -135 0 0 -120z"/>
</g>
</svg>
